<svg width="222" height="35" viewBox="0 0 222 35" fill="none" xmlns="http://www.w3.org/2000/svg">
<g clip-path="url(#clip0_3_720)">
<path d="M35.3674 6.36977C35.3674 2.84995 32.5135 0 28.9976 0H7.24843C3.73257 0 0.878662 2.85391 0.878662 6.36977V33.2322C0.878662 33.9536 1.46926 34.5403 2.19463 34.5403H12.9999C13.7252 34.5403 14.3158 33.9497 14.3158 33.2322V16.5051C14.3158 14.8205 15.7031 13.4372 17.3996 13.4372H34.0593C34.7808 13.4372 35.3674 12.8505 35.3674 12.1371V6.37374V6.36977Z" fill="#20C7BE"/>
<path d="M34.127 34.4967H20.1944C19.9407 34.4967 19.7385 34.2906 19.7385 34.0409V22.3914C19.7385 20.8812 20.9633 19.6564 22.4735 19.6564H34.123C34.3767 19.6564 34.5789 19.8585 34.5789 20.1122V34.0409C34.5789 34.2946 34.3728 34.4967 34.123 34.4967" fill="#20C7BE"/>
<path d="M92.9607 6.56403C92.9607 2.5963 90.2733 0.273529 86.476 0.273529H64.9884C61.5122 0.273529 58.694 3.09177 58.694 6.56799V33.1094C58.694 33.8189 59.3757 34.4967 60.0892 34.4967H69.523C70.2365 34.4967 70.9539 33.803 70.9539 33.0935V15.0465C70.9539 13.3817 71.604 12.4581 73.2806 12.4581L91.4743 12.4502C92.1838 12.4502 92.9607 11.8913 92.9607 11.1858V6.56799V6.56403Z" fill="#20C7BE"/>
<path d="M206.412 0.273529H196.546C188.456 0.273529 181.837 6.89302 181.837 14.9831V19.5969C181.837 27.6869 188.456 34.3064 196.546 34.3064H206.412C214.502 34.3064 221.121 27.6869 221.121 19.5969V14.9831C221.121 6.89302 214.502 0.273529 206.412 0.273529ZM208.869 19.5691C208.869 21.0635 207.649 22.2843 206.154 22.2843H196.804C195.309 22.2843 194.089 21.0635 194.089 19.5691V15.0148C194.089 13.5204 195.309 12.2996 196.804 12.2996H206.154C207.649 12.2996 208.869 13.5204 208.869 15.0148V19.5691Z" fill="#20C7BE"/>
<path d="M121.354 0.368652H111.488C103.398 0.368652 96.7782 6.98814 96.7782 15.0782V19.692C96.7782 27.7821 103.398 34.4015 111.488 34.4015H121.354C129.444 34.4015 136.063 27.7821 136.063 19.692V15.0782C136.063 6.98814 129.444 0.368652 121.354 0.368652ZM123.811 19.6643C123.811 21.1586 122.59 22.3794 121.096 22.3794H111.745C110.251 22.3794 109.03 21.1586 109.03 19.6643V15.1099C109.03 13.6156 110.251 12.3947 111.745 12.3947H121.096C122.59 12.3947 123.811 13.6156 123.811 15.1099V19.6643Z" fill="#20C7BE"/>
<path d="M178.226 32.0867C178.226 33.6088 176.917 34.5006 175.498 34.5006H153.202C148.097 34.5006 143.959 30.3625 143.959 25.2571V2.5408C143.959 1.29618 144.977 0.273529 146.226 0.273529H153.916C155.184 0.273529 156.223 1.31204 156.223 2.58044V19.7237C156.223 21.3885 156.873 22.3121 158.549 22.3121L175.847 22.32C177.298 22.32 178.229 23.2356 178.229 24.4723V32.0827L178.226 32.0867Z" fill="#20C7BE"/>
</g>
<defs>
<clipPath id="clip0_3_720">
<rect width="220.243" height="34.5403" fill="white" transform="translate(0.878662)"/>
</clipPath>
</defs>
</svg>
